<?xml version="1.0" standalone="no"?>
<!DOCTYPE svg PUBLIC "-//W3C//DTD SVG 20010904//EN"
 "http://www.w3.org/TR/2001/REC-SVG-20010904/DTD/svg10.dtd">
<svg version="1.0" xmlns="http://www.w3.org/2000/svg"
 width="1080.000000pt" height="675.000000pt" viewBox="0 0 1080.000000 675.000000"
 preserveAspectRatio="xMidYMid meet">

<g transform="translate(0.000000,675.000000) scale(0.100000,-0.100000)"
fill="#000000" stroke="none">
<path d="M0 4495 c0 -2128 1 -2255 17 -2255 10 0 91 5 181 11 91 6 168 7 172
3 10 -10 18 -130 22 -334 l3 -144 -35 -7 c-19 -4 -108 -13 -197 -20 l-163 -12
0 -870 0 -869 327 4 c226 2 334 7 348 15 23 13 178 40 310 53 50 5 131 16 180
24 50 8 114 15 144 15 51 1 120 18 131 32 3 4 55 11 115 15 100 8 110 11 110
29 0 15 9 21 44 27 50 9 61 16 42 27 -17 11 -6 17 47 26 32 5 42 11 42 26 0
10 4 19 9 19 5 0 11 10 15 23 4 17 13 22 38 24 60 4 120 14 114 20 -3 3 2 12
11 18 15 11 7 14 -51 20 -58 6 -67 10 -63 25 2 10 1 24 -4 31 -4 8 -1 18 9 26
10 7 12 12 5 13 -32 1 -60 48 -84 138 l-24 94 22 17 c25 20 170 47 324 60 64
6 116 15 130 24 13 9 50 19 81 22 59 7 105 35 57 35 -13 0 -44 -5 -68 -11 -24
-5 -45 -8 -48 -6 -2 2 33 25 78 52 76 44 86 47 131 41 45 -6 50 -5 83 28 19
20 32 41 29 49 -7 19 63 44 150 53 l69 7 -24 -32 c-13 -17 -30 -31 -39 -30 -8
1 -40 1 -69 0 -70 -1 -56 -19 19 -24 43 -3 55 -7 54 -20 -2 -25 -103 -199
-331 -570 -113 -185 -133 -223 -128 -247 4 -17 15 -30 28 -34 12 -4 243 -9
512 -12 270 -3 612 -9 760 -14 276 -10 1163 -17 1470 -12 143 2 702 -8 1305
-23 148 -4 653 -4 970 -1 145 2 181 5 212 20 41 20 44 25 26 45 -11 10 -10 15
4 25 13 9 14 16 6 24 -8 8 -2 13 23 20 28 8 31 11 16 17 -17 7 -17 8 0 21 10
7 32 14 48 15 20 1 12 4 -25 11 -30 5 -62 12 -70 15 -8 3 -18 5 -22 5 -5 -1
-8 2 -8 8 0 5 -7 10 -15 10 -8 0 -15 5 -15 11 0 5 -5 7 -11 3 -7 -4 -9 1 -7
12 2 11 10 18 18 16 11 -3 11 -1 0 13 -18 22 1 35 50 35 19 0 46 3 59 7 25 6
25 9 6 123 -2 13 1 30 7 37 8 10 3 13 -23 13 -51 0 -69 16 -28 25 l33 7 -30
13 -29 13 25 9 24 10 -21 12 c-12 6 -33 11 -47 11 -44 0 -28 18 22 25 26 3 53
7 61 8 33 5 20 25 -21 32 -24 4 -46 12 -50 18 -3 5 -46 11 -96 12 -49 1 -95 5
-101 9 -27 17 -5 24 80 25 51 1 96 4 100 7 5 3 19 7 31 9 11 3 31 13 42 23 12
11 28 22 37 25 29 10 10 67 -29 87 -33 18 -30 28 12 44 33 12 4 25 -69 31
-134 12 -149 18 -60 27 44 4 96 10 115 12 19 3 39 5 43 5 5 1 6 5 2 10 -3 6
-26 13 -50 17 -25 3 -48 10 -51 15 -3 5 -15 10 -27 10 -16 1 -14 3 8 8 17 3
30 13 30 21 0 13 -31 25 -118 45 -9 2 -21 6 -26 9 -13 8 -1 46 14 46 18 0 45
28 45 46 0 8 -4 13 -8 12 -4 -2 -24 4 -43 14 -18 9 -47 22 -64 30 -28 12 -23
13 71 16 83 2 111 -1 158 -18 31 -12 56 -26 56 -31 0 -6 7 -6 19 1 11 5 22 6
25 2 3 -5 27 -4 53 1 61 13 183 1 183 -18 0 -14 22 -25 51 -25 12 0 19 -7 19
-20 0 -11 5 -20 10 -20 6 0 11 -10 11 -22 1 -13 5 -6 8 14 5 30 9 36 21 28 13
-9 13 -11 0 -20 -13 -9 -13 -11 0 -20 19 -12 21 -12 40 0 13 9 13 11 0 20 -13
9 -13 11 0 20 8 5 15 15 15 22 0 17 75 15 85 -3 13 -19 4 -27 -40 -34 -23 -4
-40 -12 -40 -20 0 -8 7 -11 19 -8 10 3 22 0 25 -6 4 -6 18 -11 32 -11 25 0 29
-11 14 -45 -5 -13 -9 -15 -9 -5 -1 12 -4 12 -17 -2 -21 -21 -12 -35 29 -47
l32 -8 -29 -8 c-17 -5 -49 -3 -75 4 -28 7 -63 8 -91 3 -37 -6 -46 -12 -48 -31
-3 -20 0 -23 17 -18 12 3 23 2 26 -3 3 -4 -6 -11 -20 -14 -62 -16 0 -39 98
-37 58 1 70 -8 43 -35 -10 -9 -48 -15 -118 -19 l-103 -5 0 -32 c0 -29 -4 -33
-27 -36 -34 -4 -37 -22 -5 -22 13 0 27 -3 31 -7 4 -4 26 -6 49 -5 23 1 60 -2
82 -7 39 -8 39 -9 8 -10 -23 -1 -31 -5 -27 -15 8 -20 -13 -24 -143 -32 -139
-8 -160 -15 -115 -38 17 -9 42 -16 55 -16 37 0 87 -12 87 -20 0 -4 -14 -10
-30 -14 -23 -4 -30 -11 -30 -30 0 -18 -8 -27 -32 -36 l-33 -13 33 -7 c46 -11
48 -15 18 -45 -14 -14 -26 -34 -26 -45 0 -17 6 -18 70 -13 55 5 74 2 95 -11
14 -9 25 -22 25 -29 0 -8 25 -13 82 -14 72 -2 120 -9 208 -30 23 -6 23 -7 -10
-13 -24 -4 7 -9 95 -15 84 -5 119 -11 100 -15 -29 -6 -28 -7 15 -14 71 -12
413 -2 418 12 2 7 10 12 18 12 8 0 14 5 14 10 0 13 -41 29 -57 23 -7 -3 -13
-1 -13 5 0 5 10 13 23 16 22 6 22 6 2 22 -17 13 -18 16 -5 24 22 14 40 12 106
-10 145 -51 538 -100 795 -100 59 0 110 -4 114 -9 3 -5 -7 -12 -22 -14 l-28
-4 28 -2 c16 0 25 -5 22 -11 -4 -6 15 -10 49 -10 31 0 56 4 56 9 0 7 58 20
125 26 10 2 21 7 22 12 3 9 141 -1 171 -12 7 -3 10 0 7 5 -9 15 49 12 64 -2
11 -11 12 -10 6 2 -6 12 -5 13 6 3 7 -7 29 -14 48 -14 l36 -2 -40 -7 -40 -7
43 -2 c33 -1 42 -5 42 -18 0 -16 -11 -18 -106 -16 -120 2 -178 -10 -106 -22
40 -7 42 -9 27 -26 -9 -9 -40 -23 -68 -31 l-52 -13 110 -6 c61 -4 165 -7 231
-8 85 -1 130 -5 150 -15 15 -8 31 -13 36 -10 4 3 8 526 7 1162 l0 1157 -47
-95 c-93 -188 -132 -275 -132 -292 0 -18 -8 -22 -46 -19 -12 1 -35 -10 -53
-24 -21 -19 -31 -22 -31 -12 0 13 42 39 81 51 16 4 55 77 133 249 20 43 36 83
36 88 0 5 5 9 10 9 6 0 10 5 10 10 0 6 9 30 20 52 18 38 20 62 20 245 0 227 2
221 -80 278 -27 19 -49 51 -90 133 -29 59 -61 118 -72 132 -42 57 -49 66 -71
95 -50 65 -64 100 -70 171 -8 104 -25 138 -86 168 -27 14 -62 38 -76 53 -30
33 -97 145 -113 192 -11 31 -10 32 11 26 12 -4 36 -13 52 -21 17 -7 46 -20 65
-29 19 -8 42 -18 50 -23 87 -50 106 -52 147 -14 26 22 33 38 41 97 6 39 10 87
9 108 -3 45 2 51 38 37 14 -5 76 -23 136 -39 l109 -30 0 561 c0 309 -2 559 -4
557 -9 -9 -26 -457 -28 -730 l-3 -276 -40 8 c-56 11 -92 23 -152 49 l-52 22 5
107 c2 59 6 152 8 207 2 54 9 167 16 249 7 83 13 206 14 275 2 116 8 293 22
700 3 91 7 167 9 170 3 5 9 149 20 530 4 102 9 193 11 203 5 16 -19 17 -410
17 l-416 0 0 -57 c0 -32 -4 -110 -10 -173 -5 -63 -12 -191 -15 -285 -3 -93 -8
-188 -10 -210 -2 -22 -9 -107 -15 -190 -6 -82 -13 -166 -16 -185 -7 -53 -13
-165 -25 -452 -5 -145 -12 -301 -15 -348 -7 -149 -7 -166 -1 -178 4 -6 -1 -13
-11 -16 -16 -5 -19 -17 -19 -71 -1 -58 1 -65 19 -65 17 0 19 -6 17 -52 -1 -29
-6 -57 -10 -63 -4 -5 -8 -14 -8 -20 0 -5 -9 -11 -21 -13 -13 -2 -20 2 -20 14
0 14 -7 16 -40 10 -37 -6 -40 -5 -56 30 l-17 35 -41 -39 c-37 -36 -58 -45
-226 -96 -365 -110 -415 -126 -433 -136 -12 -7 -31 -7 -62 1 -25 6 -60 8 -80
5 -19 -4 -36 -6 -37 -5 -2 1 -12 -3 -23 -9 -16 -8 -48 -5 -135 13 -63 12 -105
23 -92 24 27 1 29 27 2 41 -11 6 -20 17 -20 24 0 8 -10 11 -30 8 -22 -3 -30 0
-30 10 0 15 -39 38 -63 38 -7 0 -28 14 -47 32 -41 37 -131 61 -168 45 -26 -12
-27 -20 -5 -53 16 -25 17 -25 31 -8 13 17 14 16 8 -14 -5 -30 -4 -33 14 -27
19 6 20 2 20 -60 0 -42 -4 -64 -10 -60 -5 3 -10 21 -10 39 0 25 -6 35 -24 44
-29 13 -98 117 -94 140 6 30 51 37 135 19 43 -8 157 -32 253 -51 211 -44 253
-57 303 -98 37 -29 43 -31 121 -29 44 1 95 6 111 11 17 5 50 14 75 20 25 7 63
21 85 31 22 11 96 33 165 50 158 39 231 63 300 98 30 16 72 32 93 35 36 7 38
9 35 39 -3 30 -5 32 -39 29 -50 -4 -79 22 -90 81 -11 60 -31 104 -85 187 -23
36 -52 95 -63 132 -24 71 -66 142 -116 192 -61 61 -104 122 -159 229 -31 59
-73 131 -92 159 -20 28 -43 65 -50 82 -18 39 -36 69 -48 77 -4 4 -12 46 -17
94 -7 72 -17 105 -56 189 -26 55 -51 103 -55 106 -9 7 -68 161 -108 284 -32
95 -77 195 -113 246 -25 36 -22 59 11 66 15 3 45 12 67 20 23 8 48 14 57 14 9
0 20 5 23 10 4 7 -643 10 -1933 10 l-1939 0 7 -46 c4 -26 4 -61 0 -78 -11 -48
-71 -220 -80 -230 -17 -18 -69 7 -121 59 -30 30 -60 55 -67 55 -7 0 -15 7 -18
15 -4 8 -10 15 -16 15 -33 0 245 -284 367 -374 44 -33 97 -75 117 -94 28 -26
42 -33 60 -29 49 13 362 263 520 415 42 41 90 82 106 92 30 18 30 18 28 -3 -2
-12 -17 -51 -34 -87 -42 -86 -42 -102 0 -89 23 6 34 5 40 -4 19 -28 -12 -211
-49 -296 -11 -25 -13 -46 -7 -80 17 -89 9 -200 -19 -292 -31 -99 -32 -118 -12
-175 12 -34 12 -87 5 -320 -5 -153 -14 -313 -19 -355 -13 -98 -52 -253 -61
-242 -4 4 -32 85 -62 178 l-56 170 4 192 c2 106 8 211 14 234 14 51 8 69 -25
69 -21 0 -25 5 -27 33 -2 54 2 70 22 92 26 28 25 45 -7 113 -33 70 -131 169
-237 239 -81 54 -127 70 -172 59 -29 -8 -204 -177 -253 -245 -30 -43 -41 -91
-21 -91 30 0 140 -131 191 -227 26 -48 30 -66 25 -101 -10 -72 -65 -221 -128
-342 -70 -135 -99 -170 -141 -170 -36 0 -56 -24 -57 -67 0 -44 17 -51 28 -11
l9 33 8 -38 c8 -39 -8 -119 -62 -322 -13 -49 -32 -127 -42 -172 -39 -170 -51
-134 -63 186 -5 141 -10 274 -10 296 -1 79 -19 218 -44 343 -17 88 -28 186
-34 320 -5 116 -16 221 -26 262 -20 82 -15 105 21 96 23 -6 24 -4 19 26 -4 18
-24 78 -44 133 -21 55 -48 138 -60 185 -13 47 -56 184 -96 305 -40 121 -80
253 -90 293 l-17 72 -2079 0 -2078 0 0 -2255z m9782 211 c-3 -34 -10 -50 -21
-53 -14 -3 -16 -25 -17 -149 -1 -143 -6 -172 -25 -144 -10 16 -8 300 3 300 3
0 8 21 11 48 2 26 13 79 23 117 l19 70 5 -70 c3 -38 4 -92 2 -119z m180 -198
c22 -6 59 -29 84 -51 43 -38 102 -66 197 -92 51 -14 369 -156 364 -162 -5 -4
-104 25 -142 42 -59 26 -291 114 -348 131 -48 15 -63 16 -90 6 -37 -13 -70
-15 -104 -6 -19 5 -23 13 -23 43 0 20 6 43 13 50 10 11 10 14 0 18 -16 6 -17
33 -2 33 7 0 29 -5 51 -12z m-162 -54 c0 -9 -5 -14 -12 -12 -18 6 -21 28 -4
28 9 0 16 -7 16 -16z m-1670 -112 c0 -13 -3 -12 -20 3 -11 10 -17 22 -14 27 8
12 34 -11 34 -30z m1605 -21 c3 -5 1 -12 -5 -16 -5 -3 -10 1 -10 9 0 18 6 21
15 7z m-1445 -5 c0 -3 -4 -8 -10 -11 -5 -3 -10 -1 -10 4 0 6 5 11 10 11 6 0
10 -2 10 -4z m-102 -42 c6 4 26 -3 44 -14 29 -17 30 -20 11 -20 -40 0 -123 21
-123 32 0 6 9 8 20 5 11 -3 20 0 20 6 0 8 4 7 9 -2 5 -7 13 -11 19 -7z m1589
0 c5 -14 -5 -480 -27 -1249 -5 -181 -14 -539 -20 -795 -6 -256 -15 -618 -21
-805 -6 -187 -12 -370 -13 -407 l-1 -67 52 -46 c46 -41 51 -49 38 -62 -17 -17
-19 -39 -5 -48 5 -3 7 -12 4 -20 -4 -10 5 -16 30 -21 39 -7 49 -24 15 -24 -12
0 -17 -4 -14 -11 4 -6 -3 -13 -14 -16 -33 -8 -19 -27 24 -33 51 -7 56 -26 8
-35 -21 -4 -43 -11 -50 -17 -7 -5 -18 -6 -25 -2 -22 14 -59 10 -69 -7 -15 -29
-10 -39 20 -39 16 0 31 -4 33 -9 2 -4 27 -11 55 -15 44 -6 52 -4 47 8 -4 11 8
9 45 -9 28 -14 51 -31 51 -38 0 -14 -71 -36 -123 -38 l-32 -1 30 -8 30 -7 -27
-7 c-16 -5 -28 -13 -28 -18 0 -20 -34 -2 -40 22 -5 21 -12 25 -45 27 l-40 1
35 -8 c34 -7 34 -7 -13 -9 -32 -1 -49 -6 -53 -16 -4 -11 -21 -15 -55 -15 -44
0 -51 3 -59 25 -12 31 -49 34 -57 5 -6 -24 -24 -25 -151 -6 -122 19 -155 31
-169 61 -6 14 -10 25 -10 25 1 0 40 -7 87 -15 98 -17 118 -19 104 -6 -9 8 -59
22 -154 41 -101 21 -138 45 -90 57 l21 6 -21 14 c-23 16 -26 41 -7 68 10 12
16 15 21 6 4 -6 0 -14 -8 -17 -12 -5 -13 -10 -5 -25 12 -23 32 -24 49 -4 12
14 15 14 34 -3 58 -53 177 -56 196 -6 7 17 18 24 37 25 16 0 37 5 48 10 16 7
14 9 -12 6 -23 -2 -33 1 -33 10 0 7 8 13 18 14 11 0 7 5 -12 14 -20 8 -31 21
-33 40 -4 25 -2 26 24 21 37 -8 65 9 33 19 -22 7 -21 8 13 24 50 23 74 48 88
88 16 48 98 169 113 165 13 -2 28 435 41 1188 3 168 10 474 15 680 5 206 14
584 20 840 7 256 13 471 16 478 5 17 33 15 41 -4z m-1412 -24 c3 -5 -1 -10 -9
-10 -9 0 -16 5 -16 10 0 6 4 10 9 10 6 0 13 -4 16 -10z m-281 -82 c-6 -19 -5
-21 8 -11 20 17 28 7 28 -34 0 -23 -4 -32 -12 -27 -7 4 -8 3 -4 -5 4 -6 11 -9
16 -6 4 3 11 -12 15 -32 4 -24 3 -39 -4 -41 -15 -5 -14 -23 0 -19 15 3 45
-136 30 -141 -15 -5 -14 -23 1 -19 7 1 15 -16 19 -43 4 -25 12 -63 18 -85 14
-51 14 -65 0 -65 -7 0 -9 9 -6 21 3 11 1 19 -5 17 -5 -2 -9 -7 -9 -11 1 -4 1
-19 1 -34 0 -21 3 -24 12 -15 15 15 25 15 25 0 0 -7 3 -32 7 -55 6 -30 4 -43
-4 -43 -7 0 -9 8 -5 21 5 16 3 20 -6 16 -8 -2 -12 -11 -10 -18 2 -8 3 -22 3
-31 -1 -21 9 -23 26 -6 9 9 12 7 12 -11 0 -12 -4 -20 -9 -16 -15 8 -25 -15
-12 -28 8 -8 11 -8 11 1 0 7 5 12 10 12 6 0 10 -7 10 -15 0 -8 -7 -15 -15 -15
-8 0 -15 -5 -15 -10 0 -6 8 -10 17 -8 13 2 19 -8 26 -47 5 -33 5 -51 -2 -53
-6 -2 -11 -11 -11 -19 0 -12 3 -13 14 -4 11 9 15 7 20 -11 9 -34 7 -48 -5 -48
-6 0 -8 9 -4 20 3 11 2 20 -4 20 -15 0 -23 -18 -15 -32 4 -7 9 -25 11 -42 4
-36 11 -45 22 -27 6 9 10 6 14 -11 9 -33 8 -48 -2 -48 -5 0 -7 10 -4 23 4 16
3 19 -6 11 -7 -6 -9 -23 -5 -42 5 -26 9 -30 20 -21 11 9 14 8 14 -4 0 -8 -7
-18 -16 -21 -8 -3 -12 -11 -9 -16 5 -8 11 -7 21 1 11 9 14 8 14 -5 0 -9 -7
-16 -16 -16 -11 0 -14 -5 -10 -16 3 -9 6 -24 6 -35 0 -10 5 -19 11 -19 7 0 9
10 5 24 -3 14 -2 27 3 30 8 5 18 -28 26 -94 2 -14 13 -65 24 -113 24 -101 25
-107 10 -107 -6 0 -8 9 -4 20 4 12 2 20 -5 20 -7 0 -10 8 -7 20 3 11 1 22 -4
25 -4 3 -6 12 -2 20 3 8 0 15 -6 15 -11 0 -10 -27 4 -103 7 -34 25 -62 25 -38
0 6 5 11 10 11 6 0 10 -7 10 -15 0 -8 -7 -15 -16 -15 -12 0 -15 -6 -10 -26 4
-15 10 -39 13 -55 6 -30 18 -38 26 -16 4 7 6 6 6 -5 1 -9 -4 -18 -10 -20 -7
-2 -8 -17 -4 -41 6 -30 10 -35 21 -26 11 9 14 8 14 -4 0 -8 -7 -18 -16 -21 -8
-3 -12 -11 -9 -16 5 -8 11 -7 21 1 11 9 14 8 14 -4 0 -8 -7 -18 -15 -21 -12
-4 -13 -11 -7 -23 5 -10 7 -24 5 -30 -6 -16 9 -17 25 -1 9 9 12 8 12 -5 0 -10
-7 -20 -15 -23 -10 -4 -13 -14 -9 -33 10 -38 15 -45 25 -30 4 8 3 19 -3 27 -8
9 -8 16 0 24 7 7 12 -3 17 -36 6 -40 10 -46 31 -46 35 0 212 -39 259 -58 62
-24 67 -30 45 -55 -18 -19 -21 -19 -38 -4 -23 21 -39 22 -23 3 17 -20 -2 -28
-36 -15 -15 6 -67 14 -115 18 -70 5 -88 4 -88 -7 0 -7 8 -12 18 -11 31 5 73
-11 65 -24 -7 -12 -6 -68 2 -97 3 -9 -10 -25 -30 -39 -43 -29 -55 -23 -20 9
35 33 31 40 -17 35 -109 -12 -237 3 -239 29 0 6 -5 0 -10 -14 -10 -23 -11 -24
-21 -7 -9 16 -21 19 -92 16 -101 -4 -218 25 -189 46 15 11 7 14 -52 19 -39 3
-114 14 -169 24 -96 17 -98 17 -62 27 91 26 4 45 -113 25 -36 -6 -88 -13 -116
-16 -47 -4 -48 -3 -16 7 18 6 39 16 47 23 8 8 56 15 132 20 65 3 139 12 163
19 40 12 44 16 44 45 l1 32 -124 0 -124 0 -62 58 c-78 72 -130 104 -145 89 -6
-6 -11 -16 -11 -23 0 -15 -49 -119 -74 -156 -11 -17 -24 -25 -37 -23 -27 5
-99 -64 -99 -96 0 -13 -5 -31 -10 -39 -8 -12 -10 -9 -10 13 0 15 -5 27 -11 27
-5 0 -7 -5 -3 -12 4 -6 3 -8 -3 -5 -5 3 -20 27 -33 53 -14 25 -35 51 -47 57
-14 6 -23 19 -23 34 0 19 -5 23 -29 23 -15 0 -40 9 -55 21 -14 11 -29 18 -34
15 -9 -5 -70 22 -88 39 -14 13 -29 56 -25 70 1 6 0 7 -4 3 -4 -3 -19 8 -35 25
-26 29 -27 33 -13 49 9 10 20 15 26 11 16 -10 111 -6 154 6 21 6 56 11 78 11
29 0 44 5 52 19 7 11 38 29 70 41 48 18 71 21 138 17 44 -3 96 -9 116 -12 l37
-6 31 78 c18 43 39 92 47 110 8 17 14 34 14 37 0 3 11 30 25 60 14 30 25 57
25 60 0 7 47 114 60 138 6 10 10 23 10 29 0 5 11 35 25 65 14 30 25 57 25 60
0 3 9 26 21 52 25 58 32 75 54 132 31 79 46 115 54 130 5 9 12 30 15 48 4 17
12 34 17 37 5 4 9 14 9 23 0 9 6 28 13 42 8 14 26 59 42 100 26 72 40 106 71
177 8 17 14 36 14 42 0 6 6 25 14 43 8 18 21 49 30 70 9 20 16 42 16 50 0 17
9 28 22 28 5 0 6 -10 2 -22z m2683 -4 c-3 -3 -12 -4 -19 -1 -8 3 -5 6 6 6 11
1 17 -2 13 -5z m-5796 -866 c29 -16 41 -18 57 -9 29 15 66 14 110 -5 l37 -15
-28 -17 c-16 -10 -25 -23 -22 -31 10 -27 -25 -116 -64 -161 -34 -38 -41 -43
-55 -31 -9 7 -16 22 -16 32 0 28 -19 33 -29 6 -11 -27 -75 -81 -115 -97 -15
-5 -46 -10 -68 -10 -23 0 -49 -6 -57 -13 -9 -8 -40 -24 -70 -36 -52 -22 -121
-69 -121 -82 0 -4 40 -10 90 -13 76 -6 99 -4 152 13 115 38 268 43 289 10 6
-11 13 -9 29 9 22 24 68 29 101 12 51 -28 62 -176 19 -273 -21 -48 -34 -57
-80 -57 -31 0 -29 -4 -43 140 -2 21 -4 12 -5 -23 -2 -69 -22 -121 -53 -137
-12 -7 -56 -16 -98 -22 -79 -9 -216 -43 -336 -82 -62 -20 -85 -23 -192 -19
-94 3 -136 1 -179 -12 -94 -27 -57 -39 134 -42 92 -1 172 -3 177 -3 87 -4 299
35 420 77 123 43 149 17 143 -140 -4 -133 -22 -167 -94 -183 -126 -30 -175
-45 -258 -79 -111 -47 -213 -56 -323 -31 -87 19 -159 21 -193 3 -14 -7 -47
-19 -75 -26 -45 -12 -93 -47 -81 -58 3 -3 55 5 115 17 102 20 118 21 208 9
164 -21 394 -23 478 -4 39 8 79 13 88 9 18 -7 41 -77 53 -157 8 -56 -7 -84
-64 -122 -50 -33 -172 -52 -412 -66 -184 -11 -215 -16 -341 -62 -64 -23 -107
-32 -319 -61 -88 -13 -242 -8 -267 7 -5 3 -39 8 -76 11 -37 3 -72 8 -77 11
-21 13 -127 183 -133 213 -8 41 -56 104 -101 131 -30 19 -51 21 -207 22 -96 1
-184 -1 -197 -5 -30 -10 -97 21 -136 62 -42 45 -80 198 -56 227 4 6 14 30 21
55 7 25 17 52 23 60 6 8 20 33 31 55 40 81 102 153 158 181 26 14 117 13 188
-2 13 -2 74 -7 134 -10 94 -5 129 -2 235 19 182 37 229 61 372 194 115 107
156 152 194 214 42 69 165 173 224 189 31 8 43 18 54 45 24 55 99 82 142 50
27 -21 41 -19 82 14 26 19 58 32 105 40 37 6 92 23 122 37 118 56 185 62 256
22z m-2874 -111 c23 -50 49 -119 58 -152 9 -33 28 -95 41 -138 45 -145 33
-163 -95 -148 -57 6 -94 16 -125 35 -24 14 -55 26 -68 26 -53 1 -122 71 -120
123 2 85 65 143 141 131 33 -5 41 -3 59 21 12 15 22 37 22 48 0 43 24 147 34
147 6 0 30 -42 53 -93z m3416 65 c25 -27 2 -54 -46 -54 -43 0 -137 21 -137 31
0 9 99 38 136 40 18 1 38 -6 47 -17z m2783 -59 c-10 -10 -19 5 -10 18 6 11 8
11 12 0 2 -7 1 -15 -2 -18z m-8201 -403 c-28 -12 -67 -12 -60 0 3 6 23 10 43
9 30 0 33 -2 17 -9z m42 -16 c-3 -3 -12 -4 -19 -1 -8 3 -5 6 6 6 11 1 17 -2
13 -5z m-80 -30 c-3 -3 -12 -4 -19 -1 -8 3 -5 6 6 6 11 1 17 -2 13 -5z m6 -31
c-7 -2 -19 -2 -25 0 -7 3 -2 5 12 5 14 0 19 -2 13 -5z m52 -3 c3 -6 -4 -10
-17 -10 -18 0 -20 2 -8 10 19 12 18 12 25 0z m222 4 c-3 -3 -12 -4 -19 -1 -8
3 -5 6 6 6 11 1 17 -2 13 -5z m-167 -54 c0 -5 -2 -10 -4 -10 -3 0 -8 5 -11 10
-3 6 -1 10 4 10 6 0 11 -4 11 -10z m8252 -55 c5 -41 -7 -47 -15 -8 -5 25 -2
43 7 43 2 0 6 -16 8 -35z m-5682 5 c82 -13 133 -26 150 -38 31 -24 39 -52 13
-52 -39 0 -143 -62 -263 -157 -178 -140 -232 -213 -298 -402 -21 -61 -26 -95
-27 -171 0 -87 3 -101 31 -158 25 -51 29 -65 19 -79 -12 -16 -17 -16 -74 2
-52 15 -83 17 -223 12 l-163 -5 -55 30 c-30 16 -67 41 -82 56 -41 38 -37 90
16 253 61 184 95 254 156 322 54 59 170 152 229 182 19 9 74 55 123 102 125
117 135 123 238 123 47 0 141 -9 210 -20z m5726 -247 c-10 -10 -19 5 -10 18 6
11 8 11 12 0 2 -7 1 -15 -2 -18z m-3250 -15 c7 -5 14 -21 17 -36 3 -15 11 -49
18 -75 10 -36 10 -53 2 -67 -7 -9 -15 -35 -19 -56 -8 -49 -20 -64 -51 -64 -30
0 -83 27 -84 43 -2 27 4 73 12 88 4 9 13 47 19 84 14 88 25 108 53 99 12 -3
27 -11 33 -16z m2319 -108 c4 -6 -7 -10 -24 -10 -17 0 -31 5 -31 10 0 6 11 10
24 10 14 0 28 -4 31 -10z m-235 -50 c0 -5 -4 -10 -9 -10 -6 0 -13 5 -16 10 -3
6 1 10 9 10 9 0 16 -4 16 -10z m-6563 -22 c-3 -8 -6 -5 -6 6 -1 11 2 17 5 13
3 -3 4 -12 1 -19z m6557 -59 c-19 -21 -22 -20 76 -44 35 -9 72 -21 81 -25 15
-9 196 -40 323 -57 78 -10 82 -27 10 -42 -198 -39 -532 38 -511 119 3 10 0 21
-6 23 -7 2 -3 13 9 29 10 14 23 24 27 21 5 -3 1 -13 -9 -24z m689 -146 c-13
-2 -35 -2 -50 0 -16 2 -5 4 22 4 28 0 40 -2 28 -4z m2622 -3 c-3 -5 -14 -10
-23 -10 -15 0 -15 2 -2 10 20 13 33 13 25 0z m-2125 -20 c0 -14 -38 -32 -58
-28 -13 3 -10 8 13 20 36 19 45 21 45 8z m45 -20 c3 -5 -1 -10 -9 -10 -9 0
-16 5 -16 10 0 6 4 10 9 10 6 0 13 -4 16 -10z m-3412 -49 c9 -16 17 -36 17
-44 0 -8 7 -17 15 -21 21 -8 19 -32 -3 -48 -10 -7 -22 -25 -25 -39 -9 -37 42
-100 105 -130 69 -32 69 -47 -1 -38 -31 5 -71 9 -89 11 -48 3 -50 18 -3 18 56
0 53 20 -8 53 -70 38 -76 48 -62 101 6 25 11 72 11 105 0 69 15 80 43 32z
m2867 -1 c58 -5 182 -9 277 -9 157 -1 173 -3 182 -19 10 -19 5 -58 -11 -78 -5
-7 -23 -15 -41 -18 -19 -4 -48 -22 -72 -48 -47 -48 -116 -82 -151 -74 -20 5
-24 13 -24 42 0 19 7 42 15 51 8 8 13 19 9 24 -7 12 -94 9 -94 -3 0 -17 5 -23
17 -20 16 4 17 -30 1 -46 -15 -15 -58 -16 -58 -2 0 18 -26 10 -51 -16 -39 -42
-81 -62 -143 -69 -32 -3 -68 -12 -80 -20 -11 -8 -27 -15 -36 -15 -8 0 -36 -11
-62 -25 -69 -37 -95 -33 -63 9 8 11 15 30 15 42 0 20 -3 22 -30 14 -45 -13
-116 -16 -111 -5 3 6 37 36 77 67 80 63 97 85 140 176 l29 64 80 -7 c44 -3
127 -10 185 -15z m2653 3 c-7 -2 -19 -2 -25 0 -7 3 -2 5 12 5 14 0 19 -2 13
-5z m70 -20 c-7 -2 -19 -2 -25 0 -7 3 -2 5 12 5 14 0 19 -2 13 -5z m44 -9 c-3
-3 -12 -4 -19 -1 -8 3 -5 6 6 6 11 1 17 -2 13 -5z m-7677 -74 c44 0 109 -45
110 -75 0 -13 -17 -32 -48 -52 -26 -18 -51 -33 -55 -33 -4 0 -21 -10 -37 -22
-22 -16 -44 -21 -95 -22 -46 -1 -65 3 -65 12 0 13 -22 15 -58 6 -14 -4 -21
-12 -18 -20 3 -7 1 -16 -4 -19 -6 -4 -10 -1 -10 5 0 6 -4 8 -10 5 -6 -4 -10
10 -10 35 0 27 5 43 15 46 21 8 19 23 -5 44 -21 18 -18 50 5 50 7 0 18 7 25
15 21 25 71 35 149 30 41 -3 91 -5 111 -5z m175 -125 c0 -28 -29 -25 -33 3 -3
19 0 23 15 20 10 -2 18 -12 18 -23z m-527 -61 c28 -5 42 -14 42 -28 0 -21 -60
-13 -77 10 -14 20 -7 38 10 27 7 -4 18 -8 25 -9z m662 -74 c12 -16 22 -42 23
-57 2 -27 -1 -29 -70 -42 -40 -8 -76 -12 -80 -8 -4 4 10 24 30 45 19 20 40 49
46 65 13 35 25 34 51 -3z m-1082 -20 c63 -27 124 -93 146 -157 18 -51 14 -63
-17 -63 -12 0 -58 -16 -103 -35 -44 -19 -105 -40 -135 -46 -30 -6 -72 -15 -94
-19 -220 -47 -277 -61 -310 -74 -21 -9 -41 -16 -45 -16 -16 0 -101 96 -120
136 -27 54 -18 77 52 138 76 68 223 136 338 157 83 15 229 5 288 -21z m4683
20 c29 -16 63 -94 93 -215 68 -276 189 -653 274 -853 28 -64 29 -74 15 -79
-18 -7 -809 4 -962 14 l-103 6 6 51 c3 28 2 57 -3 64 -5 8 -8 -6 -9 -34 -2
-44 -36 -124 -53 -124 -4 0 -9 -12 -11 -27 -2 -19 -10 -29 -26 -33 -13 -3
-252 -4 -533 -2 -491 2 -509 3 -509 21 0 15 11 21 58 29 36 6 58 7 61 0 1 -5
8 -2 15 7 9 12 18 13 46 5 19 -5 51 -11 70 -11 19 -1 27 -3 18 -6 -10 -2 -18
-8 -18 -11 0 -12 203 -12 255 0 48 12 49 12 20 19 -24 5 -20 7 23 8 28 0 52
-3 52 -8 0 -14 71 -24 83 -12 8 8 7 11 -3 12 -10 0 -7 4 5 9 27 12 235 12 235
1 0 -5 -10 -12 -22 -14 l-23 -4 22 -2 c13 0 27 7 33 19 7 12 21 20 38 20 15 0
34 5 42 10 10 7 -18 10 -90 11 -874 8 -879 8 -873 -6 3 -11 -6 -16 -35 -21
-32 -5 -42 -11 -44 -28 -3 -20 -9 -21 -135 -24 -114 -2 -133 0 -133 13 0 8 -7
15 -15 15 -10 0 -15 10 -15 29 0 38 -14 41 -152 29 -62 -5 -135 -11 -161 -13
-48 -3 -78 -15 -41 -15 50 -1 273 -20 302 -26 25 -5 32 -11 32 -30 l0 -24
-530 0 c-463 0 -531 2 -535 15 -17 54 -15 52 -29 32 -17 -22 -96 -25 -96 -3 0
8 5 18 11 22 29 18 -20 22 -156 12 -142 -10 -158 -9 -315 16 -91 15 -262 38
-380 51 -234 27 -270 33 -270 44 0 4 19 34 43 66 24 33 122 177 218 320 97
143 193 286 215 317 l39 57 106 1 c112 0 189 16 248 53 24 14 56 21 110 24 75
4 77 5 116 47 l40 43 100 -13 c55 -7 192 -20 305 -28 291 -23 421 -33 620 -52
107 -10 241 -14 347 -12 163 3 173 4 204 27 30 22 45 25 136 27 56 1 125 5
153 9 47 6 50 6 50 -15 0 -13 -10 -38 -21 -57 -12 -19 -19 -37 -16 -40 6 -5
105 25 122 37 23 18 132 40 293 60 99 13 271 52 326 75 47 20 44 19 161 44 92
19 227 36 395 50 139 12 140 12 161 1z m-6156 -68 c35 -22 56 -26 180 -34 153
-10 550 -12 565 -3 5 3 11 1 14 -3 6 -10 -21 -37 -74 -72 -19 -14 -60 -48 -91
-77 l-56 -54 -74 20 c-113 30 -389 69 -500 71 -3 0 -3 27 -1 60 4 58 3 61 -32
96 l-35 35 31 -7 c18 -3 51 -18 73 -32z m1880 -68 c27 -14 72 -44 98 -66 33
-28 54 -38 69 -35 21 6 68 -11 68 -24 0 -5 -15 -16 -32 -25 -43 -22 -43 -21
-29 -37 8 -11 7 -17 -7 -29 -14 -12 -21 -13 -42 -2 l-24 13 24 9 c43 16 6 20
-60 7 -89 -18 -190 -26 -190 -17 0 5 34 19 75 32 42 13 80 29 86 36 5 6 18 10
28 7 32 -8 33 15 2 31 -16 9 -32 24 -36 35 -3 11 -24 29 -47 41 -45 24 -81 22
-138 -7 -35 -17 -50 -8 -50 32 0 13 3 16 8 8 10 -16 51 -8 71 12 20 20 58 14
126 -21z m5410 -54 c3 -5 -1 -10 -10 -10 -9 0 -13 5 -10 10 3 6 8 10 10 10 2
0 7 -4 10 -10z m-5570 -78 c3 -20 10 -45 16 -54 11 -22 11 -28 0 -28 -9 0 -41
94 -41 120 0 26 20 -3 25 -38z m-47 -55 c4 -34 -15 -35 -28 -1 -13 34 -13 36
8 32 10 -2 18 -14 20 -31z m-900 -101 c22 -21 23 -26 9 -26 -20 0 -22 -11 -4
-29 10 -11 9 -13 -3 -9 -8 2 -19 14 -25 26 -5 11 -26 29 -47 39 -52 25 -50 42
3 33 23 -4 53 -19 67 -34z m5757 -16 c-3 -5 -14 -10 -23 -9 -14 0 -13 2 3 9
27 11 27 11 20 0z m-4985 -56 c0 -11 -107 -52 -150 -57 l-45 -5 35 18 c19 11
45 19 56 20 12 0 37 7 55 15 37 16 49 18 49 9z m5035 -14 c-3 -5 -14 -10 -23
-9 -14 0 -13 2 3 9 27 11 27 11 20 0z m-5290 -70 c-3 -5 -30 -9 -58 -8 l-52 1
50 7 c28 4 54 8 58 8 5 1 5 -2 2 -8z m-779 -79 c-8 -12 -131 -44 -147 -39 -8
3 15 14 51 25 72 23 104 28 96 14z m6824 -31 c0 -5 -11 -10 -25 -10 -14 0 -25
5 -25 10 0 6 11 10 25 10 14 0 25 -4 25 -10z m1186 -21 c17 -14 6 -39 -17 -39
-10 0 -32 8 -49 18 -23 15 -27 21 -17 31 13 13 62 8 83 -10z m-356 -19 c0 -5
-5 -10 -11 -10 -5 0 -7 5 -4 10 3 6 8 10 11 10 2 0 4 -4 4 -10z m-1545 -40
c-3 -5 -16 -10 -28 -9 -20 1 -20 2 3 9 14 4 26 8 28 9 2 1 0 -3 -3 -9z m1855
0 c13 -8 13 -10 -2 -10 -9 0 -20 5 -23 10 -8 13 5 13 25 0z m-8577 -51 c-12
-12 -210 -35 -220 -26 -12 13 5 18 88 26 128 13 145 13 132 0z m9327 -44 c14
-19 14 -19 -2 -6 -10 7 -18 18 -18 24 0 6 1 8 3 6 1 -2 9 -13 17 -24z m-979
-87 c77 -26 80 -73 4 -56 -49 11 -85 34 -85 53 0 18 34 19 81 3z m-9001 -48
c0 -5 -11 -10 -25 -10 -14 0 -25 5 -25 10 0 6 11 10 25 10 14 0 25 -4 25 -10z
m1930 -114 c0 -2 -13 -6 -29 -8 -17 -2 -28 -1 -25 4 5 8 54 12 54 4z m8077
-12 c-3 -3 -12 -4 -19 -1 -8 3 -5 6 6 6 11 1 17 -2 13 -5z m-4464 -51 c-7 -2
-19 -2 -25 0 -7 3 -2 5 12 5 14 0 19 -2 13 -5z m5032 -13 c-3 -5 -15 -10 -25
-10 -10 0 -22 5 -25 10 -4 6 7 10 25 10 18 0 29 -4 25 -10z m-9045 -130 c0 -5
-5 -10 -11 -10 -5 0 -7 5 -4 10 3 6 8 10 11 10 2 0 4 -4 4 -10z"/>
<path d="M9691 796 c2 -56 11 -71 23 -40 8 21 -3 82 -16 90 -5 3 -8 -17 -7
-50z"/>
<path d="M9511 786 c11 -9 69 -14 69 -6 0 6 -16 10 -37 10 -20 0 -34 -2 -32
-4z"/>
<path d="M9686 694 c-4 -15 -5 -28 -3 -30 8 -8 39 35 32 45 -11 18 -23 12 -29
-15z"/>
<path d="M8090 4130 c0 -5 5 -10 11 -10 5 0 7 5 4 10 -3 6 -8 10 -11 10 -2 0
-4 -4 -4 -10z"/>
<path d="M8045 3973 c-15 -43 -36 -96 -46 -117 -10 -22 -19 -46 -19 -53 0 -8
-5 -11 -11 -7 -8 4 -9 0 -4 -15 4 -15 2 -21 -8 -21 -10 0 -13 -7 -10 -20 4
-14 0 -20 -12 -20 -14 0 -15 -3 -5 -15 16 -19 3 -40 -16 -24 -9 7 -14 8 -14 1
0 -6 5 -14 10 -17 19 -12 10 -26 -12 -20 -19 6 -21 5 -10 -6 6 -7 12 -22 11
-33 0 -12 -3 -15 -6 -8 -2 6 -12 12 -20 12 -14 0 -14 -2 0 -18 23 -25 21 -35
-5 -27 -19 6 -21 5 -10 -6 21 -22 15 -41 -10 -33 -22 6 -22 6 -5 -13 19 -22
14 -35 -11 -26 -14 5 -15 3 -4 -8 20 -22 15 -41 -10 -34 -21 5 -21 5 -6 -8 20
-16 8 -44 -13 -31 -12 7 -12 5 -1 -9 17 -20 7 -38 -16 -31 -16 5 -16 5 -1 -8
16 -13 16 -16 0 -44 -10 -19 -22 -29 -31 -27 -12 4 -13 3 -1 -5 19 -14 6 -43
-16 -36 -17 5 -17 5 -1 -6 10 -6 15 -17 11 -26 -4 -11 -9 -12 -19 -3 -9 8 -14
8 -14 1 0 -6 4 -13 10 -17 5 -3 6 -13 3 -21 -5 -13 -8 -13 -15 -2 -7 9 -8 7
-4 -8 6 -20 -35 -135 -89 -252 -14 -29 -25 -55 -25 -58 0 -3 -14 -35 -31 -72
-81 -176 -90 -199 -76 -210 14 -11 214 -76 372 -122 199 -57 233 -71 321 -126
47 -30 90 -54 95 -54 5 0 18 9 28 19 26 26 23 49 -54 531 -20 123 -117 845
-140 1035 -9 81 -26 189 -29 192 -2 2 -16 -31 -31 -74z"/>
<path d="M8110 4039 c0 -5 5 -7 10 -4 6 3 10 8 10 11 0 2 -4 4 -10 4 -5 0 -10
-5 -10 -11z"/>
<path d="M8125 3960 c3 -5 8 -10 11 -10 2 0 4 5 4 10 0 6 -5 10 -11 10 -5 0
-7 -4 -4 -10z"/>
<path d="M8130 3914 c0 -8 5 -12 10 -9 6 3 10 10 10 16 0 5 -4 9 -10 9 -5 0
-10 -7 -10 -16z"/>
<path d="M8140 3880 c0 -5 5 -10 10 -10 6 0 10 5 10 10 0 6 -4 10 -10 10 -5 0
-10 -4 -10 -10z"/>
<path d="M8150 3801 c0 -6 5 -13 10 -16 6 -3 10 1 10 9 0 9 -4 16 -10 16 -5 0
-10 -4 -10 -9z"/>
<path d="M8160 3756 c0 -9 5 -16 10 -16 6 0 10 4 10 9 0 6 -4 13 -10 16 -5 3
-10 -1 -10 -9z"/>
<path d="M8165 3711 c-3 -5 -1 -12 4 -15 5 -3 11 1 15 9 6 16 -9 21 -19 6z"/>
<path d="M8190 3584 c0 -8 5 -12 10 -9 6 3 10 10 10 16 0 5 -4 9 -10 9 -5 0
-10 -7 -10 -16z"/>
<path d="M8196 3383 c-6 -14 -5 -15 5 -6 7 7 10 15 7 18 -3 3 -9 -2 -12 -12z"/>
<path d="M8230 3374 c0 -8 5 -12 10 -9 6 3 10 10 10 16 0 5 -4 9 -10 9 -5 0
-10 -7 -10 -16z"/>
<path d="M8205 3313 c4 -27 9 -66 10 -88 2 -22 4 -40 5 -40 1 0 3 -16 5 -35 2
-19 4 -35 5 -35 2 0 6 -28 14 -105 8 -70 33 -250 41 -289 2 -13 16 -105 30
-205 14 -99 28 -193 31 -208 4 -22 2 -28 -11 -28 -24 0 -13 -23 16 -31 41 -12
77 -10 82 5 3 7 1 33 -4 57 -10 42 -13 57 -23 124 -3 17 -16 79 -30 139 -14
59 -28 123 -30 141 -2 18 -18 93 -35 167 -17 74 -33 151 -35 171 -3 21 -17 85
-31 143 -14 58 -25 119 -25 135 0 16 -5 29 -11 29 -8 0 -9 -14 -4 -47z"/>
<path d="M8240 3334 c0 -8 5 -12 10 -9 6 3 10 10 10 16 0 5 -4 9 -10 9 -5 0
-10 -7 -10 -16z"/>
<path d="M8325 2908 c8 -36 12 -44 20 -36 8 8 -7 68 -17 68 -6 0 -7 -14 -3
-32z"/>
<path d="M8340 2841 c0 -25 6 -27 13 -6 4 8 2 17 -3 20 -6 4 -10 -3 -10 -14z"/>
<path d="M7256 2471 c-3 -4 8 -20 25 -35 16 -15 29 -32 29 -37 0 -5 6 -9 13
-9 15 0 44 47 35 56 -12 11 -98 33 -102 25z"/>
<path d="M8325 2157 c4 -18 2 -52 -4 -77 -11 -51 -7 -61 16 -37 11 11 16 35
17 76 1 50 -2 61 -17 65 -15 4 -17 0 -12 -27z"/>
<path d="M7146 2167 c3 -10 9 -15 12 -12 3 3 0 11 -7 18 -10 9 -11 8 -5 -6z"/>
<path d="M8425 2160 c-3 -5 -1 -10 4 -10 6 0 11 5 11 10 0 6 -2 10 -4 10 -3 0
-8 -4 -11 -10z"/>
<path d="M7125 2140 c3 -5 8 -10 11 -10 2 0 4 5 4 10 0 6 -5 10 -11 10 -5 0
-7 -4 -4 -10z"/>
<path d="M8382 2131 c-11 -6 -10 -9 3 -15 30 -11 77 -7 73 7 -5 15 -58 21 -76
8z"/>
<path d="M8500 2100 c0 -5 5 -10 10 -10 6 0 10 5 10 10 0 6 -4 10 -10 10 -5 0
-10 -4 -10 -10z"/>
<path d="M8390 2068 c0 -13 51 -21 62 -10 6 6 -2 11 -26 14 -20 2 -36 0 -36
-4z"/>
<path d="M8500 2055 c-14 -16 -10 -18 14 -9 9 3 16 10 16 15 0 14 -16 11 -30
-6z"/>
<path d="M8564 2037 c2 -19 26 -47 26 -31 0 6 -6 19 -14 30 -13 17 -14 17 -12
1z"/>
<path d="M3052 1716 c1 -15 8 -26 14 -26 7 0 10 8 7 20 -8 31 -23 35 -21 6z"/>
<path d="M2790 1712 c0 -12 23 -32 37 -32 7 0 13 5 13 10 0 6 -9 10 -21 10
-11 0 -17 5 -14 10 3 6 1 10 -4 10 -6 0 -11 -4 -11 -8z"/>
<path d="M4910 1036 c0 -9 5 -16 10 -16 6 0 10 4 10 9 0 6 -4 13 -10 16 -5 3
-10 -1 -10 -9z"/>
<path d="M4987 1039 c7 -7 9 -24 6 -40 -3 -18 -1 -29 6 -29 6 0 11 10 11 23 0
25 15 54 22 41 2 -5 3 -25 3 -44 -1 -19 -3 -73 -4 -120 -2 -101 -20 -90 -23
14 -2 94 -17 82 -20 -16 -2 -64 -6 -83 -18 -85 -32 -6 -43 15 -50 98 l-7 84
-2 -82 c0 -45 -4 -88 -7 -96 -7 -19 132 -26 631 -31 381 -4 508 0 486 14 -7 4
19 10 57 13 106 10 130 17 162 47 54 50 31 135 -43 159 -102 34 -1240 81
-1210 50z m1008 -48 l100 -8 -90 0 c-49 -1 -180 5 -290 12 l-200 14 190 -6
c105 -3 235 -8 290 -12z m133 -13 c-6 -18 -28 -21 -28 -4 0 9 7 16 16 16 9 0
14 -5 12 -12z m-985 -25 c-13 -2 -33 -2 -45 0 -13 2 -3 4 22 4 25 0 35 -2 23
-4z m104 1 c-3 -3 -12 -4 -19 -1 -8 3 -5 6 6 6 11 1 17 -2 13 -5z m875 -43 c6
-39 -2 -101 -13 -101 -5 0 -9 29 -9 65 0 66 14 89 22 36z"/>
<path d="M3844 1033 l-301 -3 -7 -77 c-3 -42 -3 -80 1 -84 5 -4 256 -21 558
-39 303 -18 552 -34 554 -36 2 -2 -22 -5 -55 -6 -69 -2 103 -15 225 -17 66 -1
72 1 65 17 -4 9 -12 50 -17 90 l-10 72 -56 2 c-31 1 -63 2 -71 4 -8 1 -87 2
-174 3 -88 1 -156 4 -153 8 4 3 108 5 232 4 124 -1 225 1 226 6 0 4 2 20 4 36
l4 27 -362 -2 c-199 -2 -497 -4 -663 -5z m214 -60 c-10 -2 -26 -2 -35 0 -10 3
-2 5 17 5 19 0 27 -2 18 -5z m237 -4 c-4 -5 -30 -9 -60 -9 -30 0 -56 4 -60 9
-3 6 22 10 60 10 38 0 63 -4 60 -10z m60 1 c3 -5 -3 -10 -15 -10 -12 0 -18 5
-15 10 3 6 10 10 15 10 5 0 12 -4 15 -10z m-619 -29 c-5 -8 -56 -3 -56 5 0 2
14 4 31 4 16 0 28 -4 25 -9z m987 -20 c10 -9 -446 -3 -673 9 -104 6 -21 7 255
3 226 -2 414 -8 418 -12z"/>
<path d="M3481 1013 c13 -15 11 -16 -23 -10 -32 5 -40 2 -49 -16 -7 -12 -17
-25 -22 -29 -33 -21 48 -88 105 -88 23 0 24 3 19 38 -4 20 -4 56 0 80 5 40 4
42 -19 42 -22 0 -23 -2 -11 -17z"/>
<path d="M4910 988 c0 -19 2 -20 10 -8 13 19 13 30 0 30 -5 0 -10 -10 -10 -22z"/>
<path d="M5140 626 c0 -8 121 -98 126 -93 2 2 -19 22 -48 44 -61 46 -78 56
-78 49z"/>
<path d="M3719 473 c4 -34 5 -35 11 -13 7 26 3 50 -9 50 -4 0 -5 -17 -2 -37z"/>
<path d="M3757 486 c-3 -8 0 -17 8 -19 15 -7 25 1 25 20 0 17 -26 17 -33 -1z"/>
<path d="M4675 5590 c-10 -11 -15 -23 -11 -27 11 -11 61 11 61 27 0 23 -29 23
-50 0z"/>
<path d="M8633 4250 c0 -22 4 -37 8 -34 5 3 9 21 9 40 0 19 -4 34 -9 34 -4 0
-8 -18 -8 -40z"/>
<path d="M8470 4220 c-13 -8 -12 -10 3 -10 9 0 17 5 17 10 0 12 -1 12 -20 0z"/>
<path d="M8048 1204 c-26 -14 -16 -20 50 -29 36 -5 57 -3 67 5 39 32 -62 53
-117 24z"/>
<path d="M7945 1200 c3 -5 18 -10 33 -10 21 0 24 2 12 10 -20 13 -53 13 -45 0z"/>
<path d="M7898 873 c7 -3 16 -2 19 1 4 3 -2 6 -13 5 -11 0 -14 -3 -6 -6z"/>
<path d="M7985 500 c4 -6 11 -8 16 -5 14 9 11 15 -7 15 -8 0 -12 -5 -9 -10z"/>
<path d="M8153 423 c26 -2 67 -2 90 0 23 2 2 3 -48 3 -49 0 -68 -1 -42 -3z"/>
<path d="M10448 353 c6 -2 18 -2 25 0 6 3 1 5 -13 5 -14 0 -19 -2 -12 -5z"/>
<path d="M10013 322 c-40 -2 -73 -7 -73 -12 0 -6 11 -10 24 -10 14 0 28 -4 31
-10 8 -13 96 -13 171 1 70 13 94 29 44 30 -19 0 -55 1 -80 2 -25 1 -78 1 -117
-1z"/>
<path d="M10278 303 c7 -3 16 -2 19 1 4 3 -2 6 -13 5 -11 0 -14 -3 -6 -6z"/>
<path d="M8193 283 c-39 -5 -42 -17 -10 -35 27 -15 387 -22 432 -9 24 7 13 9
-50 10 -95 1 -129 15 -63 25 25 4 51 4 59 1 8 -3 34 -1 59 4 45 9 -357 13
-427 4z"/>
<path d="M8888 283 c12 -2 32 -2 45 0 12 2 2 4 -23 4 -25 0 -35 -2 -22 -4z"/>
<path d="M10068 238 c5 -18 7 -19 10 -6 2 9 13 19 25 21 16 3 13 5 -10 6 -28
1 -30 -1 -25 -21z"/>
<path d="M10240 250 c0 -5 4 -10 9 -10 6 0 13 5 16 10 3 6 -1 10 -9 10 -9 0
-16 -4 -16 -10z"/>
<path d="M1790 210 c0 -12 47 -13 53 -2 3 4 -8 8 -24 9 -16 1 -29 -2 -29 -7z"/>
<path d="M1793 179 c14 -8 22 -8 30 0 8 8 3 11 -18 11 -26 -1 -28 -2 -12 -11z"/>
<path d="M10688 158 c9 -9 15 -9 24 0 9 9 7 12 -12 12 -19 0 -21 -3 -12 -12z"/>
<path d="M8916 115 c5 -12 16 -14 58 -9 28 3 57 7 63 9 7 3 12 0 10 -6 -2 -11
102 -21 118 -11 16 10 -86 28 -172 31 -72 2 -82 0 -77 -14z"/>
<path d="M8873 103 c9 -2 23 -2 30 0 6 3 -1 5 -18 5 -16 0 -22 -2 -12 -5z"/>
<path d="M10508 63 c18 -2 45 -2 60 0 15 2 0 4 -33 4 -33 0 -45 -2 -27 -4z"/>
<path d="M10613 63 c4 -3 48 -7 98 -8 54 -2 86 1 78 6 -16 10 -186 12 -176 2z"/>
</g>
</svg>
