<svg width="17" height="16" viewBox="0 0 17 16" fill="none" xmlns="http://www.w3.org/2000/svg">
<path d="M14.7695 0.65626C14.5528 0.665821 14.3509 0.728942 14.1732 0.800791C14.0067 0.867767 13.3705 1.14062 12.3685 1.57032C11.3656 2.0004 10.0377 2.57053 8.62109 3.1797C5.78798 4.39803 2.60281 5.76946 0.971354 6.47136C0.910006 6.49775 0.695947 6.56613 0.46875 6.7435C0.241553 6.92087 0 7.2884 0 7.69793C0 8.02815 0.157378 8.35622 0.355469 8.55209C0.553559 8.74796 0.763165 8.84472 0.942708 8.91798C1.59415 9.18379 3.61456 10.0106 3.99609 10.1667C4.13036 10.578 4.86166 12.815 5.03125 13.3633C5.14304 13.7251 5.24946 13.9517 5.38802 14.1315C5.4573 14.2214 5.53783 14.3002 5.63542 14.362C5.67442 14.3867 5.71719 14.4057 5.76042 14.4232L5.76302 14.4245C5.77298 14.4285 5.78157 14.4353 5.79167 14.4388C5.81072 14.4455 5.82347 14.4463 5.84896 14.4518C5.95051 14.4846 6.05303 14.5052 6.14453 14.5052C6.53464 14.5052 6.77344 14.2904 6.77344 14.2904L6.78776 14.28L8.79427 12.5443L11.2279 14.8464C11.2621 14.8948 11.5817 15.3333 12.2865 15.3333C12.7049 15.3333 13.0369 15.1234 13.25 14.8997C13.4631 14.6761 13.5959 14.4412 13.6523 14.1458V14.1445C13.7051 13.8654 15.9479 2.35157 15.9479 2.35157L15.944 2.3672C16.0097 2.06752 16.0269 1.78844 15.9544 1.51303C15.882 1.23762 15.6911 0.973937 15.4544 0.832041C15.2178 0.690177 14.9862 0.646699 14.7695 0.65626ZM14.6445 2.04949C14.6413 2.06895 14.6469 2.05916 14.6419 2.08204L14.6406 2.08985L14.6393 2.09767C14.6393 2.09767 12.4243 13.4643 12.3424 13.8971C12.3484 13.8645 12.321 13.9295 12.293 13.9688C12.2533 13.9414 12.1719 13.9063 12.1719 13.9063L12.1589 13.8919L8.83463 10.7474L6.48437 12.7787L7.18359 9.97918C7.18359 9.97918 11.5544 5.45475 11.8177 5.19142C12.0297 4.98075 12.0742 4.90731 12.0742 4.83465C12.0742 4.73731 12.0235 4.66668 11.9102 4.66668C11.8082 4.66668 11.671 4.76584 11.5977 4.81251C10.6423 5.42154 6.44788 7.8661 4.56771 8.95965C4.26892 8.83737 2.19311 7.98766 1.48958 7.70053C1.49491 7.6982 1.49316 7.69903 1.4987 7.69662C3.13058 6.99453 6.31442 5.62312 9.14713 4.40496C10.5635 3.79588 11.8924 3.22532 12.8945 2.79558C13.8812 2.37247 14.5667 2.08127 14.6445 2.04949Z" fill="white"/>
</svg>
