<svg width="18" height="19" viewBox="0 0 18 19" fill="none" xmlns="http://www.w3.org/2000/svg">
<path d="M16.9125 4.2625C16.6 3.14688 15.9813 2.26563 15.075 1.64219C13.9313 0.853129 12.6157 0.575004 11.4797 0.404692C9.90784 0.170317 8.4844 0.137504 7.12659 0.303129C5.85471 0.459379 4.8969 0.707817 4.02346 1.10938C2.31096 1.89688 1.28284 3.17032 0.968774 4.89375C0.815649 5.73125 0.712524 6.4875 0.653149 7.20938C0.515649 8.87813 0.640649 10.3547 1.0344 11.7234C1.41877 13.0578 2.08909 14.0109 3.0844 14.6375C3.33752 14.7969 3.66252 14.9125 3.97659 15.0234C4.15471 15.0859 4.32815 15.1469 4.47034 15.2141C4.60159 15.275 4.60159 15.2859 4.60002 15.3953C4.58909 16.3438 4.60002 18.2031 4.60002 18.2031L4.60315 18.6H5.31565L5.43127 18.4875C5.50784 18.4156 7.27346 16.7094 7.90315 16.0219L7.98909 15.9266C8.0969 15.8016 8.0969 15.8016 8.20784 15.8C9.05784 15.7828 9.92659 15.75 10.7891 15.7031C11.8344 15.6469 13.0453 15.5453 14.186 15.0703C15.2297 14.6344 15.9922 13.9422 16.45 13.0141C16.9282 12.0453 17.211 10.9969 17.3172 9.80782C17.5047 7.71719 17.3719 5.90313 16.9125 4.2625ZM13.1532 12.3922C12.8907 12.8188 12.5 13.1156 12.0391 13.3078C11.7016 13.4484 11.3578 13.4188 11.025 13.2781C8.23909 12.0984 6.05315 10.2406 4.6094 7.56875C4.31096 7.01875 4.10471 6.41875 3.86721 5.8375C3.81877 5.71875 3.8219 5.57813 3.80002 5.44688C3.82034 4.50782 4.54065 3.97813 5.26877 3.81875C5.5469 3.75625 5.79377 3.85469 6.00002 4.05313C6.5719 4.59688 7.02346 5.22969 7.36409 5.93907C7.51253 6.25 7.44534 6.525 7.19221 6.75625C7.13909 6.80469 7.0844 6.84844 7.02659 6.89219C6.44846 7.32657 6.36409 7.65625 6.6719 8.31094C7.1969 9.425 8.06878 10.1734 9.19534 10.6375C9.49221 10.7594 9.7719 10.6984 9.99846 10.4578C10.0297 10.4266 10.0641 10.3953 10.086 10.3578C10.5297 9.61719 11.175 9.69063 11.7703 10.1125C12.161 10.3906 12.5407 10.6844 12.9266 10.9672C13.5157 11.4 13.511 11.8063 13.1532 12.3922ZM9.45784 5C9.32659 5 9.19534 5.01094 9.06565 5.03282C8.8469 5.06875 8.64221 4.92188 8.60471 4.70313C8.56878 4.48594 8.71565 4.27969 8.9344 4.24375C9.10627 4.21407 9.28284 4.2 9.45784 4.2C11.1907 4.2 12.6 5.60938 12.6 7.34219C12.6 7.51875 12.586 7.69532 12.5563 7.86563C12.5235 8.06094 12.3547 8.2 12.1625 8.2C12.1407 8.2 12.1188 8.19844 12.0953 8.19375C11.8782 8.15782 11.7313 7.95157 11.7672 7.73438C11.7891 7.60625 11.8 7.475 11.8 7.34219C11.8 6.05157 10.7485 5 9.45784 5ZM11.4 7.4C11.4 7.62032 11.2203 7.8 11 7.8C10.7797 7.8 10.6 7.62032 10.6 7.4C10.6 6.73907 10.061 6.2 9.40003 6.2C9.17971 6.2 9.00002 6.02032 9.00002 5.8C9.00002 5.57969 9.17971 5.4 9.40003 5.4C10.5032 5.4 11.4 6.29688 11.4 7.4ZM13.6844 8.28907C13.6422 8.475 13.4766 8.6 13.2938 8.6C13.2641 8.6 13.2344 8.59688 13.2047 8.59063C12.9891 8.54063 12.8547 8.32657 12.9032 8.11094C12.961 7.85625 12.9907 7.59219 12.9907 7.32657C12.9907 5.38282 11.4078 3.8 9.46409 3.8C9.19846 3.8 8.9344 3.82969 8.67971 3.8875C8.46409 3.9375 8.25003 3.80157 8.20159 3.58594C8.15159 3.37032 8.28752 3.15625 8.50315 3.10782C8.81565 3.03594 9.13909 3 9.46409 3C11.85 3 13.7907 4.94063 13.7907 7.32657C13.7907 7.65157 13.7547 7.975 13.6844 8.28907Z" fill="white"/>
</svg>
